<svg width="14" height="12" viewBox="0 0 14 12" fill="none" xmlns="http://www.w3.org/2000/svg">
<path d="M6.7559 0.410704C7.08134 0.736141 7.08134 1.26378 6.7559 1.58922L3.17849 5.16663H12.8333C13.2935 5.16663 13.6666 5.53972 13.6666 5.99996C13.6666 6.4602 13.2935 6.83329 12.8333 6.83329H3.17849L6.7559 10.4107C7.08134 10.7361 7.08134 11.2638 6.7559 11.5892C6.43046 11.9147 5.90283 11.9147 5.57739 11.5892L0.577391 6.58922C0.42111 6.43293 0.333313 6.22097 0.333313 5.99996C0.333313 5.77895 0.42111 5.56698 0.577391 5.4107L5.57739 0.410704C5.90283 0.0852667 6.43046 0.0852667 6.7559 0.410704Z" fill="white"/>
</svg>
